<svg xmlns="http://www.w3.org/2000/svg" xml:space="preserve" width="655.359" height="655.359" style="shape-rendering:geometricPrecision;text-rendering:geometricPrecision;image-rendering:optimizeQuality;fill-rule:evenodd;clip-rule:evenodd" viewBox="0 0 6.827 6.827"><defs><style>.fil1{fill:#fffffe}</style></defs><g id="Layer_x0020_1"><circle cx="3.413" cy="3.413" r="3.413" style="fill:#ff5722"/><g id="_617905232"><path id="_617905568" class="fil1" d="M2.745 3.45a1.17 1.17 0 0 1-.26-.51l-.003-.02.014-.013c.119-.117.186-.294.236-.449l.009-.027.028.001c.114.003.23.008.343.02.092.01.183.025.272.05.16.043.291.112.422.213l.016.012-.001.02c-.01.222-.102.47-.23.652a.753.753 0 0 1-.174.188.418.418 0 0 1-.272.103.438.438 0 0 1-.279-.12.853.853 0 0 1-.12-.12zm-.007.59c.138-.06.172-.12.18-.299a.48.48 0 0 0 .227.063.51.51 0 0 0 .226-.054c.006.177.037.23.177.29.035-.027.072-.054.109-.078.035-.024.1-.068.15-.078V3.71c0-.052.042-.095.094-.095h.39c-.005-.564-.046-1.206-.31-1.63a.889.889 0 0 0-.346-.332 1.042 1.042 0 0 0-.49-.106c-.19 0-.352.034-.49.106a.89.89 0 0 0-.346.331c-.155.25-.24.64-.285 1.043a9.975 9.975 0 0 0-.05 1 .433.433 0 0 1 .124-.054c.027-.006.054-.015.08-.022l.12-.033c.047-.012.096-.023.144-.028.042-.004.094-.006.129.02l.167.13z"/><path id="_617905424" class="fil1" d="M2.376 5.19h1.43V3.943c-.122.04-.573.421-.658.487l-.612-.473c-.055-.047-.348.053-.424.073a.375.375 0 0 0-.285.364v.798H2.3l.04-.39.036.39z"/><path id="_617905376" class="fil1" d="M5 5.242V3.71a.038.038 0 0 0-.038-.038h-1.06a.038.038 0 0 0-.039.038v1.532c0 .021.017.038.038.038h1.06A.038.038 0 0 0 5 5.242zm-.707-1.199a.038.038 0 0 1 0 .076h-.217a.038.038 0 0 1 0-.076h.217zm-.217.145h.71a.038.038 0 0 1 0 .076h-.71a.038.038 0 0 1 0-.076zm0 .144h.71a.038.038 0 0 1 0 .076h-.71a.038.038 0 0 1 0-.076zm0-.433h.217a.038.038 0 0 1 0 .076h-.217a.038.038 0 0 1 0-.076zm0 .725h.71a.038.038 0 0 1 0 .076h-.71a.038.038 0 0 1 0-.076zm0 .14h.71a.038.038 0 0 1 0 .076h-.71a.038.038 0 0 1 0-.076zm0 .215h.217a.038.038 0 0 1 0 .076h-.217a.038.038 0 0 1 0-.076z"/></g></g></svg>